PathFileType	4	(X/Y/Z)	Kaydara																																																																																																																									
DataRate	CameraRate	NumFrames	NumMarkers	Units	OrigDataRate	OrigDataStartFrame	OrigNumFrames																																																																																																																					
30	30	7	41	mm	30	2	180																																																																																																																					
Frame#	Time	SALE_LFHD			SALE_RFHD			SALE_LBHD			SALE_RBHD			SALE_LFTShould			SALE_RFTShould			SALE_LRRShould			SALE_RRRShould			SALE_T10			SALE_STRN			SALE_TRUN			SALE_LSHO			SALE_LUPA			SALE_LELB			SALE_LFRM			SALE_LWRA			SALE_LWRB			SALE_LFIN			SALE_RSHO			SALE_RUPA			SALE_RELB			SALE_RFRM			SALE_RWRB			SALE_RFIN			SALE_LFWT			SALE_RFWT			SALE_LBWT			SALE_RBWT			SALE_LTHI			SALE_LKNE			SALE_RWRA			SALE_LSHN			SALE_LANK			SALE_LHEE			SALE_LTOE			SALE_RTHI			SALE_RKNE			SALE_RSHN			SALE_RANK			SALE_RHEE			SALE_RTOE		
		X1	Y1	Z1	X2	Y2	Z2	X3	Y3	Z3	X4	Y4	Z4	X5	Y5	Z5	X6	Y6	Z6	X7	Y7	Z7	X8	Y8	Z8	X9	Y9	Z9	X10	Y10	Z10	X11	Y11	Z11	X12	Y12	Z12	X13	Y13	Z13	X14	Y14	Z14	X15	Y15	Z15	X16	Y16	Z16	X17	Y17	Z17	X18	Y18	Z18	X19	Y19	Z19	X20	Y20	Z20	X21	Y21	Z21	X22	Y22	Z22	X23	Y23	Z23	X24	Y24	Z24	X25	Y25	Z25	X26	Y26	Z26	X27	Y27	Z27	X28	Y28	Z28	X29	Y29	Z29	X30	Y30	Z30	X31	Y31	Z31	X32	Y32	Z32	X33	Y33	Z33	X34	Y34	Z34	X35	Y35	Z35	X36	Y36	Z36	X37	Y37	Z37	X38	Y38	Z38	X39	Y39	Z39	X40	Y40	Z40	X41	Y41	Z41
																																																																																																																												
1	0.05	224.51138	1649.73709	-2008.49243	92.34766	1643.33221	-2013.17017	226.00334	1642.0163	-2143.81134	99.3764	1633.11722	-2141.42792	244.64722	1392.10236	-2065.20752	103.10993	1390.38132	-2061.58493	235.09197	1447.05948	-2179.23386	84.44951	1452.35657	-2167.64114	155.80408	1294.7403	-2241.09039	169.85205	1320.52429	-2014.20319	167.63918	1234.74815	-1971.66534	357.71008	1414.7171	-2137.10205	400.01953	1197.28409	-2142.84027	382.74422	1086.55357	-2155.88913	407.23946	983.17352	-2114.32175	337.36916	852.60155	-2044.34235	406.09989	840.82054	-2076.0318	397.90276	802.47154	-2024.4368	-7.31234	1419.37347	-2120.00809	-43.17153	1188.29636	-2178.10623	-67.83007	1088.53043	-2130.63919	-59.98347	975.72884	-2138.3345	-77.68331	840.97672	-2088.1279	-83.37586	802.509	-2031.14838	292.19112	976.95587	-2024.47769	13.11242	975.11185	-2041.97693	242.89234	1042.97791	-2194.60861	65.83547	1047.08656	-2204.86252	295.37619	677.40616	-2193.20648	282.2562	505.36762	-2119.48853	-29.91633	853.67676	-2033.99323	279.29047	309.32049	-2120.03754	274.76643	124.92682	-2169.63943	234.87316	75.73907	-2231.36032	249.70163	87.14968	-2034.40857	10.20702	723.61626	-2198.17703	28.87239	564.43951	-2093.66531	81.65769	376.17733	-2107.63596	37.9507	122.9571	-2157.12677	48.25147	79.24083	-2035.86685	83.86101	62.41588	-2226.31836
2	0.083	224.45137	1649.90143	-2008.72452	92.94813	1642.57339	-2013.73138	225.96375	1641.98364	-2144.01794	99.30678	1633.0304	-2141.67267	242.86026	1390.75958	-2063.95355	103.00212	1390.52155	-2061.46057	235.09293	1447.09274	-2179.10385	84.37042	1452.3674	-2167.58896	155.83192	1294.7464	-2241.01379	169.65017	1320.57678	-2013.81912	167.49525	1234.83452	-1971.48331	357.78675	1414.75571	-2136.66763	397.5975	1195.9391	-2140.8699	382.96192	1086.55304	-2155.5307	407.41264	983.32588	-2114.12415	337.44465	852.58911	-2044.37683	406.28036	840.89058	-2075.91034	398.11646	802.55379	-2024.44	-7.40643	1419.37698	-2119.87137	-43.21356	1188.25981	-2178.0101	-67.68211	1088.45818	-2130.54276	-59.76094	975.71747	-2138.33344	-77.25008	840.84656	-2088.08945	-82.95019	802.39471	-2031.14761	292.19156	976.91437	-2024.552	13.13447	974.99763	-2042.12357	242.95803	1043.01125	-2194.64279	65.84464	1047.12433	-2204.9202	295.38406	677.3983	-2193.25684	282.63317	505.51308	-2118.62366	-29.39057	853.55164	-2034.06387	279.32341	309.13492	-2120.21637	274.80507	124.96533	-2169.44916	234.89124	75.70175	-2231.36917	249.70383	87.13263	-2034.41498	10.25445	723.62656	-2198.26645	28.90932	564.46507	-2093.77655	81.67113	376.21017	-2107.72644	37.96966	122.93927	-2157.14554	48.24785	79.26113	-2035.87006	83.8807	62.43845	-2226.34674
3	0.117	224.37416	1650.00854	-2008.9151	92.83843	1642.59171	-2013.99597	225.90776	1641.90659	-2144.14093	99.26624	1632.99377	-2141.92947	242.81115	1390.91553	-2063.77045	102.88719	1390.57098	-2061.35742	235.05203	1447.11258	-2179.00299	84.31866	1452.35458	-2167.53418	155.83324	1294.76135	-2240.98862	169.58712	1320.67032	-2013.69888	167.36446	1234.90799	-1971.30112	357.64233	1414.89944	-2136.51505	397.76028	1196.27296	-2140.63873	383.11909	1086.819	-2155.31525	407.60288	983.46817	-2113.86063	337.59586	852.63313	-2044.28482	406.53011	841.04362	-2075.75089	398.27282	802.62085	-2024.29657	-7.47774	1419.38721	-2119.85428	-43.22357	1188.29628	-2178.01285	-67.62994	1088.39592	-2130.47134	-59.60515	975.65033	-2138.24432	-76.97262	840.80406	-2088.02795	-82.64645	802.39311	-2031.11801	292.17548	976.89095	-2024.61395	13.03817	974.90143	-2041.98486	243.02958	1043.02704	-2194.60648	65.87375	1047.14706	-2204.92538	295.43997	677.39441	-2193.2988	283.19691	506.23203	-2117.77298	-29.08545	853.46802	-2034.08127	279.29754	309.28936	-2120.11856	274.79698	124.89033	-2169.20975	234.86794	75.7525	-2231.40045	249.71344	87.14144	-2034.42719	10.30836	723.63091	-2198.36441	28.87357	564.47258	-2093.87711	81.69432	376.20781	-2107.73666	37.94744	122.94479	-2157.1727	48.25639	79.25148	-2035.88272	83.87609	62.42293	-2226.34125
4	0.15	224.31126	1650.10544	-2009.06219	92.95326	1642.45132	-2014.25644	225.91734	1641.90277	-2144.27948	99.26097	1632.95639	-2142.14157	242.77712	1391.09634	-2063.5881	102.81355	1390.60425	-2061.29669	235.03323	1447.13959	-2178.87238	84.27335	1452.36008	-2167.55524	155.92005	1294.82025	-2240.98358	169.47424	1320.79132	-2013.57086	167.21785	1234.99489	-1971.19446	357.64473	1414.97772	-2136.22726	397.79438	1196.25473	-2140.10956	383.39745	1087.02065	-2155.00412	407.79121	983.59818	-2113.5051	337.79831	852.75436	-2044.05243	406.73615	841.14105	-2075.46631	398.44349	802.7169	-2024.09424	-7.53559	1419.43802	-2119.84955	-43.14952	1188.26073	-2177.87033	-67.63556	1088.42514	-2130.40283	-59.60404	975.66208	-2138.16162	-76.85941	840.72128	-2087.83112	-82.51365	802.43492	-2030.94543	292.19217	976.86966	-2024.53217	13.23589	975.03738	-2042.07382	243.11794	1043.10013	-2194.53903	65.95815	1047.17102	-2204.91943	295.52952	677.38541	-2193.30841	283.55679	506.68625	-2116.91849	-28.98109	853.52516	-2033.99445	279.298	309.30002	-2120.1265	274.83685	124.93773	-2169.51996	234.87598	75.74302	-2231.39252	249.7205	87.14771	-2034.44611	10.35518	723.65524	-2198.46558	28.92664	564.43897	-2093.99857	81.71034	376.24622	-2107.84271	37.96896	122.95433	-2157.18262	48.25201	79.26669	-2035.88928	83.88704	62.43479	-2226.34476
5	0.183	224.18516	1650.20691	-2009.20944	92.95919	1642.5325	-2014.4191	225.91671	1641.884	-2144.41772	99.26364	1632.99194	-2142.32925	242.70029	1391.44836	-2063.34305	102.6033	1390.72769	-2061.26953	235.04414	1447.20734	-2178.76862	84.28535	1452.39258	-2167.57477	155.97832	1294.80148	-2240.9404	169.32064	1320.88379	-2013.42285	167.05587	1235.15617	-1971.15082	357.59205	1415.16113	-2135.90958	397.90672	1196.38313	-2139.66461	383.56503	1087.03079	-2154.55902	407.94403	983.72482	-2113.10104	337.81094	852.81639	-2043.87955	406.87939	841.26984	-2075.08713	398.43967	802.81433	-2023.68759	-7.58511	1419.49753	-2119.96658	-43.2865	1188.37509	-2178.06046	-67.81977	1088.64647	-2130.53955	-59.63514	975.65163	-2138.11157	-76.90731	840.91545	-2087.85583	-82.5886	802.52266	-2030.87112	292.18044	976.85776	-2024.44534	13.16043	975.00938	-2042.03445	243.18314	1043.11111	-2194.52118	66.00991	1047.20955	-2204.94583	295.6109	677.40303	-2193.28491	282.55417	505.34233	-2119.32205	-29.06675	853.63518	-2033.89984	279.32365	309.27528	-2120.14511	274.88506	125.0565	-2169.32968	234.89344	75.71141	-2231.36017	249.67215	87.11343	-2034.41238	10.41998	723.69293	-2198.5379	28.95661	564.45896	-2094.06723	81.67736	376.21803	-2107.82059	37.96802	122.96139	-2157.15256	48.28031	79.2663	-2035.89951	83.91143	62.43999	-2226.33728
6	0.217	224.22462	1650.23407	-2009.3512	92.8554	1642.71606	-2014.67133	225.96325	1641.86951	-2144.58221	99.29352	1633.04581	-2142.5412	243.00686	1392.09839	-2063.23441	102.49022	1390.81848	-2061.24329	235.06109	1447.24503	-2178.69446	84.27875	1452.42264	-2167.67303	156.07162	1294.83765	-2240.93414	169.172	1321.00571	-2013.31573	166.896	1235.29259	-1971.06018	357.58682	1415.2269	-2135.56473	398.00816	1196.57837	-2139.27551	383.66188	1087.2393	-2154.22287	408.07484	983.87314	-2112.64526	337.90359	852.948	-2043.60443	406.99066	841.41624	-2074.61319	398.4449	802.9364	-2023.23349	-7.63772	1419.53903	-2120.07202	-43.25699	1188.36792	-2178.07922	-67.68325	1088.57292	-2130.51102	-59.65941	975.76378	-2138.16422	-77.04417	841.01578	-2087.82196	-82.74938	802.62367	-2030.77286	292.11693	976.85455	-2024.32709	13.25534	975.01556	-2042.11563	243.28495	1043.09937	-2194.46594	66.09838	1047.25502	-2204.96185	295.67249	677.39563	-2193.28186	282.79488	505.5188	-2118.80051	-28.94217	854.02435	-2033.73383	279.408	309.16132	-2120.2034	274.88409	125.03549	-2169.36554	234.87762	75.75396	-2231.38947	249.6981	87.1345	-2034.4281	10.49949	723.66783	-2198.54874	29.02178	564.46556	-2094.09225	81.77474	376.26564	-2107.84424	38.01561	122.97668	-2157.16736	48.2739	79.28617	-2035.85144	83.87101	62.42706	-2226.33362
7	0.25	224.11339	1650.26077	-2009.40887	92.76135	1642.83737	-2014.9118	226.03659	1641.84845	-2144.67087	99.33874	1633.0777	-2142.66037	242.65394	1392.07611	-2062.89795	102.31993	1390.92575	-2061.30402	235.08457	1447.27386	-2178.56354	84.31532	1452.40067	-2167.80075	156.22169	1294.81583	-2240.93506	168.97995	1321.0878	-2013.24036	166.72623	1235.3093	-1970.96741	357.50347	1415.30273	-2135.25421	398.16895	1196.88614	-2138.91205	383.84926	1087.30591	-2153.74268	408.09067	983.96126	-2112.03735	337.87117	853.10005	-2043.13599	407.00516	841.53275	-2074.08279	398.37734	803.06641	-2022.67441	-7.65197	1419.57733	-2120.35522	-43.17305	1188.32993	-2178.1575	-67.72091	1088.57742	-2130.64819	-59.72022	975.70999	-2138.14133	-77.21068	841.05331	-2087.77924	-82.96595	802.72186	-2030.73822	292.12921	976.87019	-2024.38461	13.34299	974.93912	-2042.04346	243.35453	1043.1337	-2194.46198	66.16318	1047.26112	-2204.91898	295.71262	677.38777	-2193.28369	282.38232	505.24078	-2120.01373	-29.42598	853.82607	-2033.67477	279.4393	309.18354	-2120.24002	274.85493	124.99156	-2169.42184	234.88447	75.72874	-2231.3913	249.68534	87.14049	-2034.42307	10.56996	723.66417	-2198.56369	29.09127	564.45324	-2094.06494	81.76664	376.23577	-2107.82028	38.03316	122.96988	-2157.14401	48.29072	79.28394	-2035.87158	83.88112	62.41699	-2226.32935
